<svg width="16" height="21" viewBox="0 0 16 21" fill="none" xmlns="http://www.w3.org/2000/svg">
<path d="M13.734 5.72338C13.734 6.34366 13.5919 6.95787 13.3159 7.53094C13.0399 8.104 12.6354 8.6247 12.1254 9.06331C11.6154 9.50192 11.01 9.84984 10.3437 10.0872C9.67737 10.3246 8.96321 10.4468 8.24199 10.4468C7.52077 10.4468 6.80662 10.3246 6.1403 10.0872C5.47398 9.84984 4.86854 9.50192 4.35857 9.06331C3.84859 8.6247 3.44405 8.104 3.16805 7.53094C2.89205 6.95787 2.75 6.34366 2.75 5.72338C2.75 4.47066 3.32862 3.26925 4.35857 2.38345C5.38852 1.49764 6.78542 1 8.24199 1C9.69856 1 11.0955 1.49764 12.1254 2.38345C13.1554 3.26925 13.734 4.47066 13.734 5.72338Z" stroke="black" stroke-width="1.5"/>
<path d="M14.5544 19.9996H1.44912C1.36625 20.0025 1.28425 19.9819 1.21286 19.9401C1.14147 19.8983 1.08368 19.8371 1.04636 19.7637C1.00904 19.6903 0.993756 19.6079 1.00231 19.5262C1.01087 19.4444 1.04292 19.3668 1.09465 19.3026C2.25642 17.838 4.94895 13.6665 8 13.6665C11.0678 13.6665 13.9224 17.8748 14.9246 19.3275C14.9697 19.3929 14.9956 19.4694 14.9995 19.5485C15.0034 19.6277 14.9851 19.7063 14.9467 19.7758C14.9083 19.8453 14.8512 19.9029 14.7818 19.9422C14.7124 19.9815 14.6343 20.002 14.5544 19.9996Z" stroke="black" stroke-width="1.5" stroke-linecap="round" stroke-linejoin="round"/>
</svg>
