<svg width="37" height="37" viewBox="0 0 37 37" fill="none" xmlns="http://www.w3.org/2000/svg">
<path d="M16.6484 1.53518C17.3256 -0.123518 19.6744 -0.123519 20.3516 1.53518L24.4155 11.4889C24.6187 11.9865 25.0135 12.3813 25.5111 12.5845L35.4648 16.6484C37.1235 17.3256 37.1235 19.6744 35.4648 20.3516L25.5111 24.4155C25.0135 24.6187 24.6187 25.0135 24.4155 25.5111L20.3516 35.4648C19.6744 37.1235 17.3256 37.1235 16.6484 35.4648L12.5845 25.5111C12.3813 25.0135 11.9865 24.6187 11.4889 24.4155L1.53518 20.3516C-0.123518 19.6744 -0.123519 17.3256 1.53518 16.6484L11.4889 12.5845C11.9865 12.3813 12.3813 11.9865 12.5845 11.4889L16.6484 1.53518Z" fill="#f8f6f0"/>
</svg>
